# xmcd CD database file
# Copyright (C) 1997 Ti Kan
# 
# Track frame offsets:
#     187
#     14327
#     28037
#     44100
#     57650
#     73252
#     88737
#     100605
#     113712
#     136570
# 
# Disc length: 2061 seconds
# 
# Revision: 1
# Processed by: cddbd v1.4b41PL1 Copyright (c) Steve Scherf et al.
# Submitted via: DiscPlay 4.0.3
# 
DISCID=88080b0a
DTITLE=Asleep At The Wheel - Asleep At The Wheel
DYEAR=1900
DGENRE=
TTITLE0=Deep Water
TTITLE1=Cool As A Breeze
TTITLE2=Liar's Moon
TTITLE3=Your Red Wagon
TTITLE4=The Way We Make A Broken Heart
TTITLE5=You Wanna Give Me A Lift
TTITLE6=Write Your Own Song
TTITLE7=Across The Alley From The Alamo
TTITLE8=Lonely Avenue In Memphis
TTITLE9=Midnight In Memphis
EXTD=
EXTT0=
EXTT1=
EXTT2=
EXTT3=
EXTT4=
EXTT5=
EXTT6=
EXTT7=
EXTT8=
EXTT9=
PLAYORDER=
